<svg width="100" height="100" viewBox="0 0 100 100" fill="none" xmlns="http://www.w3.org/2000/svg">
<path fill-rule="evenodd" clip-rule="evenodd" d="M34.6669 0H66.6664C76.603 0 84.6667 8.06354 84.6667 18.0001C84.6667 24.9634 80.7067 31.0067 74.9174 33.9999C80.7067 36.9931 84.6667 43.0366 84.6667 49.9999C84.6667 59.9365 76.603 68 66.6664 68C61.0141 68 55.9679 65.3909 52.6671 61.312V81.9999C52.6671 91.9365 44.6035 100 34.6669 100C24.7303 100 16.6667 91.9365 16.6667 81.9999C16.6667 75.0365 20.6266 68.993 26.416 65.9998C20.6266 63.0067 16.6667 56.9632 16.6667 49.9999C16.6667 43.0366 20.6266 36.9931 26.416 33.9999C20.6266 31.0067 16.6667 24.9634 16.6667 18.0001C16.6667 8.06354 24.7303 0 34.6669 0ZM20.6667 18.0001C20.6667 10.2727 26.9394 4 34.6669 4H48.6662V31.9997H34.6669L34.6235 31.9998C26.9159 31.9764 20.6667 25.713 20.6667 18.0001ZM48.6672 49.8095C48.6665 49.8729 48.6662 49.9363 48.6662 49.9999C48.6662 50.0634 48.6665 50.1269 48.6672 50.1903V63.9996H34.6668C26.9394 64 20.6667 57.7273 20.6667 49.9999C20.6667 42.2868 26.9161 36.023 34.6239 35.9998L34.6669 35.9999H48.6662L48.6672 49.8095ZM52.6671 50.1676V49.8322C52.7569 42.201 58.9638 36.0306 66.609 35.9999H66.6664C66.6808 35.9999 66.6951 35.9998 66.7094 35.9998C74.4172 36.023 80.6667 42.2868 80.6667 49.9999C80.6667 57.7273 74.3939 64 66.6664 64C58.9949 64 52.7571 57.8178 52.6671 50.1676ZM55.3552 35.9999C54.3677 36.7989 53.4663 37.7002 52.6671 38.6877V35.9999H55.3552ZM66.7098 31.9998C66.6953 31.9998 66.6809 31.9997 66.6664 31.9997C66.6445 31.9997 66.6227 31.9998 66.6008 31.9999H52.6671V4H66.6664C74.3939 4 80.6667 10.2727 80.6667 18.0001C80.6667 25.713 74.4175 31.9764 66.7098 31.9998ZM34.6669 67.9997C26.9394 67.9997 20.6667 74.2725 20.6667 81.9999C20.6667 89.7273 26.9394 96 34.6669 96C42.3944 96 48.6672 89.7273 48.6672 81.9999V67.9997H34.6669Z" fill="white"/>
</svg>
