<svg width="101" height="100" viewBox="0 0 101 100" fill="none" xmlns="http://www.w3.org/2000/svg">
<path fill-rule="evenodd" clip-rule="evenodd" d="M50.0211 0C38.151 0.00635048 26.67 4.34141 17.6312 12.23C8.5924 20.1186 2.58516 31.0464 0.683624 43.0593C-1.21792 55.0722 1.11023 67.3869 7.2518 77.8014C13.3934 88.2159 22.9479 96.051 34.2068 99.9059C36.6908 100.381 37.6264 98.7938 37.6264 97.4441C37.6264 96.0943 37.5767 92.181 37.5601 87.9026C23.6502 91.001 20.7109 81.85 20.7109 81.85C18.4423 75.9078 15.1635 74.3458 15.1635 74.3458C10.6262 71.1709 15.503 71.2304 15.503 71.2304C20.5288 71.5954 23.17 76.519 23.17 76.519C27.6245 84.3542 34.8692 82.0877 37.7174 80.7634C38.1645 77.4442 39.4645 75.1862 40.8969 73.9044C29.7855 72.6141 18.1111 68.2168 18.1111 48.5735C18.0422 43.4791 19.8861 38.5525 23.2611 34.813C22.7478 33.5227 21.0338 28.3105 23.7496 21.2307C23.7496 21.2307 27.9474 19.8555 37.5022 26.4854C45.6977 24.1875 54.3446 24.1875 62.54 26.4854C72.0865 19.8555 76.2761 21.2307 76.2761 21.2307C79.0001 28.2935 77.2862 33.5057 76.7729 34.813C80.1586 38.5531 82.0063 43.4883 81.9311 48.5905C81.9311 68.2762 70.2319 72.6141 59.1039 73.8789C60.8924 75.4748 62.4904 78.5902 62.4904 83.378C62.4904 90.237 62.4324 95.7548 62.4324 97.4441C62.4324 98.8108 63.3349 100.407 65.8685 99.9059C77.1288 96.0506 86.6842 88.214 92.8257 77.7977C98.9671 67.3815 101.294 55.0649 99.3904 43.0509C97.4867 31.0369 91.4764 20.109 82.4346 12.2218C73.3929 4.33453 61.9092 0.00232523 50.0377 0H50.0211Z" fill="white"/>
<path d="M18.9474 75.8452C18.8398 76.0921 18.4426 76.1662 18.1198 75.9934C17.797 75.8206 17.557 75.4996 17.6729 75.2445C17.7887 74.9894 18.1777 74.9235 18.5005 75.0963C18.8233 75.2692 19.0716 75.5983 18.9474 75.8452Z" fill="white"/>
<path d="M20.9752 78.0918C20.8038 78.1777 20.6077 78.2017 20.4205 78.1596C20.2333 78.1176 20.0666 78.0122 19.9489 77.8614C19.6261 77.5158 19.5599 77.0385 19.8082 76.8245C20.0565 76.6105 20.5035 76.7093 20.8262 77.0549C21.149 77.4006 21.2235 77.8779 20.9752 78.0918Z" fill="white"/>
<path d="M22.9456 80.9474C22.6393 81.1614 22.1179 80.9474 21.8282 80.5195C21.7481 80.4427 21.6844 80.3507 21.6409 80.2489C21.5973 80.1471 21.5749 80.0376 21.5749 79.927C21.5749 79.8164 21.5973 79.7069 21.6409 79.6051C21.6844 79.5033 21.7481 79.4112 21.8282 79.3345C22.1344 79.1287 22.6559 79.3345 22.9456 79.7542C23.2352 80.1739 23.2435 80.7335 22.9456 80.9474V80.9474Z" fill="white"/>
<path d="M25.6184 83.7127C25.3452 84.0172 24.7907 83.9349 24.3355 83.5235C23.8803 83.112 23.7727 82.5524 24.0458 82.2561C24.3189 81.9599 24.8735 82.0422 25.3452 82.4454C25.817 82.8487 25.908 83.4165 25.6184 83.7127V83.7127Z" fill="white"/>
<path d="M29.3675 85.3257C29.2433 85.7125 28.6805 85.8853 28.1177 85.7208C27.5549 85.5562 27.1825 85.0953 27.2901 84.7003C27.3977 84.3053 27.9688 84.1242 28.5398 84.3053C29.1109 84.4863 29.4751 84.9225 29.3675 85.3257Z" fill="white"/>
<path d="M33.4567 85.6052C33.4567 86.0085 32.9932 86.3541 32.3973 86.3623C31.8014 86.3706 31.313 86.0414 31.313 85.6381C31.313 85.2349 31.7765 84.8892 32.3724 84.881C32.9683 84.8728 33.4567 85.1937 33.4567 85.6052Z" fill="white"/>
<path d="M37.2632 84.9719C37.3377 85.3752 36.9239 85.7949 36.328 85.8936C35.7321 85.9924 35.2106 85.7537 35.1361 85.3587C35.0616 84.9637 35.492 84.5358 36.0714 84.4288C36.6508 84.3218 37.1887 84.5687 37.2632 84.9719Z" fill="white"/>
</svg>
