<svg width="101" height="100" viewBox="0 0 101 100" fill="none" xmlns="http://www.w3.org/2000/svg">
<mask id="path-1-inside-1_86_179" fill="white">
<path fill-rule="evenodd" clip-rule="evenodd" d="M0.74469 7.16338C0.74469 3.20822 4.05313 0 8.1345 0H93.3549C97.4361 0 100.745 3.20822 100.745 7.16338V92.8366C100.745 96.7931 97.4361 100 93.3549 100H8.1345C4.05313 100 0.74469 96.7931 0.74469 92.8366V7.16338ZM33.7486 83.3333V38.3511H18.5643V83.3333H33.7486ZM26.1564 32.2096C31.4515 32.2096 34.7472 28.7554 34.7472 24.4388C34.6485 20.025 31.4515 16.6667 26.2568 16.6667C21.0627 16.6667 17.6667 20.025 17.6667 24.4388C17.6667 28.7554 20.9617 32.2096 26.0574 32.2096H26.1564ZM57.3341 83.3333H42.1499C42.1499 83.3333 42.3496 42.572 42.1503 38.3511H57.3345V44.7198C57.3002 44.7718 57.2664 44.8235 57.2331 44.8747H57.3345V44.7198C59.3524 41.6547 62.9639 37.2956 71.0187 37.2956C81.0088 37.2956 88.4999 43.7247 88.4999 57.5412V83.3333H73.3169V59.2689C73.3169 53.2219 71.119 49.0969 65.6245 49.0969C61.4298 49.0969 58.9314 51.8788 57.8337 54.5649C57.4328 55.5259 57.3341 56.869 57.3341 58.2134V83.3333Z"/>
</mask>
<path fill-rule="evenodd" clip-rule="evenodd" d="M0.74469 7.16338C0.74469 3.20822 4.05313 0 8.1345 0H93.3549C97.4361 0 100.745 3.20822 100.745 7.16338V92.8366C100.745 96.7931 97.4361 100 93.3549 100H8.1345C4.05313 100 0.74469 96.7931 0.74469 92.8366V7.16338ZM33.7486 83.3333V38.3511H18.5643V83.3333H33.7486ZM26.1564 32.2096C31.4515 32.2096 34.7472 28.7554 34.7472 24.4388C34.6485 20.025 31.4515 16.6667 26.2568 16.6667C21.0627 16.6667 17.6667 20.025 17.6667 24.4388C17.6667 28.7554 20.9617 32.2096 26.0574 32.2096H26.1564ZM57.3341 83.3333H42.1499C42.1499 83.3333 42.3496 42.572 42.1503 38.3511H57.3345V44.7198C57.3002 44.7718 57.2664 44.8235 57.2331 44.8747H57.3345V44.7198C59.3524 41.6547 62.9639 37.2956 71.0187 37.2956C81.0088 37.2956 88.4999 43.7247 88.4999 57.5412V83.3333H73.3169V59.2689C73.3169 53.2219 71.119 49.0969 65.6245 49.0969C61.4298 49.0969 58.9314 51.8788 57.8337 54.5649C57.4328 55.5259 57.3341 56.869 57.3341 58.2134V83.3333Z" fill="white"/>
<path d="M33.7486 38.3511H34.7486V37.3511H33.7486V38.3511ZM33.7486 83.3333V84.3333H34.7486V83.3333H33.7486ZM18.5643 38.3511V37.3511H17.5643V38.3511H18.5643ZM18.5643 83.3333H17.5643V84.3333H18.5643V83.3333ZM34.7472 24.4388H35.7472V24.4276L35.747 24.4164L34.7472 24.4388ZM42.1499 83.3333L41.1499 83.3284L41.145 84.3333H42.1499V83.3333ZM57.3341 83.3333V84.3333H58.3341V83.3333H57.3341ZM42.1503 38.3511V37.3511H41.102L41.1514 38.3983L42.1503 38.3511ZM57.3345 38.3511H58.3345V37.3511H57.3345V38.3511ZM57.2331 44.8747L56.3949 44.3293L55.3894 45.8747H57.2331V44.8747ZM57.3345 44.8747V45.8747H58.3345V44.8747H57.3345ZM88.4999 83.3333V84.3333H89.4999V83.3333H88.4999ZM73.3169 83.3333H72.3169V84.3333H73.3169V83.3333ZM57.8337 54.5649L58.7566 54.95L58.7594 54.9432L57.8337 54.5649ZM8.1345 -1C3.5303 -1 -0.25531 2.62693 -0.25531 7.16338H1.74469C1.74469 3.78951 4.57595 1 8.1345 1V-1ZM93.3549 -1H8.1345V1H93.3549V-1ZM101.745 7.16338C101.745 2.62692 97.9589 -1 93.3549 -1V1C96.9133 1 99.7447 3.78952 99.7447 7.16338H101.745ZM101.745 92.8366V7.16338H99.7447V92.8366H101.745ZM93.3549 101C97.9588 101 101.745 97.3745 101.745 92.8366H99.7447C99.7447 96.2117 96.9134 99 93.3549 99V101ZM8.1345 101H93.3549V99H8.1345V101ZM-0.25531 92.8366C-0.25531 97.3745 3.53042 101 8.1345 101V99C4.57583 99 1.74469 96.2117 1.74469 92.8366H-0.25531ZM-0.25531 7.16338V92.8366H1.74469V7.16338H-0.25531ZM32.7486 38.3511V83.3333H34.7486V38.3511H32.7486ZM18.5643 39.3511H33.7486V37.3511H18.5643V39.3511ZM19.5643 83.3333V38.3511H17.5643V83.3333H19.5643ZM33.7486 82.3333H18.5643V84.3333H33.7486V82.3333ZM33.7472 24.4388C33.7472 26.3347 33.0276 28.0103 31.7509 29.2159C30.4738 30.4219 28.5823 31.2096 26.1564 31.2096V33.2096C29.0256 33.2096 31.4295 32.2702 33.124 30.67C34.819 29.0694 35.7472 26.8595 35.7472 24.4388H33.7472ZM26.2568 17.6667C28.6334 17.6667 30.4729 18.4309 31.7234 19.6217C32.9745 20.8132 33.7035 22.4954 33.7475 24.4611L35.747 24.4164C35.6922 21.9684 34.7733 19.7644 33.1026 18.1734C31.4312 16.5816 29.0749 15.6667 26.2568 15.6667V17.6667ZM18.6667 24.4388C18.6667 22.4988 19.4079 20.825 20.6944 19.6303C21.9839 18.4329 23.8777 17.6667 26.2568 17.6667V15.6667C23.4419 15.6667 21.0406 16.5796 19.3335 18.1648C17.6235 19.7527 16.6667 21.9649 16.6667 24.4388H18.6667ZM26.0574 31.2096C21.4757 31.2096 18.6667 28.1656 18.6667 24.4388H16.6667C16.6667 29.3453 20.4477 33.2096 26.0574 33.2096V31.2096ZM26.1564 31.2096H26.0574V33.2096H26.1564V31.2096ZM42.1499 84.3333H57.3341V82.3333H42.1499V84.3333ZM41.1514 38.3983C41.2495 40.4763 41.2499 51.6831 41.2249 62.4227C41.2123 67.7809 41.1936 73.0074 41.178 76.8944C41.1702 78.8379 41.1632 80.4464 41.1581 81.5691C41.1556 82.1304 41.1535 82.5703 41.1521 82.8698C41.1514 83.0196 41.1509 83.1342 41.1505 83.2115C41.1503 83.2501 41.1502 83.2793 41.1501 83.2989C41.15 83.3087 41.15 83.3161 41.15 83.321C41.15 83.3235 41.1499 83.3254 41.1499 83.3266C41.1499 83.3272 41.1499 83.3277 41.1499 83.328C41.1499 83.3283 41.1499 83.3284 42.1499 83.3333C43.1499 83.3382 43.1499 83.3381 43.1499 83.3378C43.1499 83.3375 43.1499 83.337 43.1499 83.3364C43.1499 83.3351 43.1499 83.3333 43.1499 83.3308C43.15 83.3258 43.15 83.3184 43.1501 83.3086C43.1502 83.289 43.1503 83.2597 43.1505 83.2211C43.1508 83.1438 43.1514 83.0291 43.1521 82.8793C43.1535 82.5796 43.1556 82.1396 43.1581 81.5781C43.1632 80.4552 43.1702 78.8463 43.178 76.9024C43.1936 73.0148 43.2123 67.7871 43.2248 62.4274C43.2498 51.7311 43.2504 40.4468 43.1492 38.304L41.1514 38.3983ZM57.3345 37.3511H42.1503V39.3511H57.3345V37.3511ZM58.3345 44.7198V38.3511H56.3345V44.7198H58.3345ZM56.4993 44.1699C56.4639 44.2235 56.4292 44.2767 56.3949 44.3293L58.0713 45.4201C58.1037 45.3702 58.1365 45.3201 58.1697 45.2697L56.4993 44.1699ZM57.2331 45.8747H57.3345V43.8747H57.2331V45.8747ZM58.3345 44.8747V44.7198H56.3345V44.8747H58.3345ZM71.0187 36.2956C66.7962 36.2956 63.6824 37.4427 61.3498 39.0318C59.0311 40.6115 57.5383 42.5917 56.4993 44.1699L58.1697 45.2697C59.1486 43.7828 60.4705 42.0509 62.4758 40.6847C64.4671 39.3281 67.1864 38.2956 71.0187 38.2956V36.2956ZM89.4999 57.5412C89.4999 50.4569 87.5773 45.1233 84.2356 41.5538C80.8883 37.9783 76.2318 36.2956 71.0187 36.2956V38.2956C75.7957 38.2956 79.8797 39.8274 82.7756 42.9206C85.6769 46.0198 87.4999 50.8089 87.4999 57.5412H89.4999ZM89.4999 83.3333V57.5412H87.4999V83.3333H89.4999ZM73.3169 84.3333H88.4999V82.3333H73.3169V84.3333ZM72.3169 59.2689V83.3333H74.3169V59.2689H72.3169ZM65.6245 50.0969C68.0834 50.0969 69.6808 50.9982 70.7088 52.4842C71.7795 54.032 72.3169 56.3385 72.3169 59.2689H74.3169C74.3169 56.1522 73.7554 53.3727 72.3536 51.3463C70.9089 49.258 68.6602 48.0969 65.6245 48.0969V50.0969ZM58.7594 54.9432C59.7579 52.4999 61.9629 50.0969 65.6245 50.0969V48.0969C60.8967 48.0969 58.1049 51.2578 56.908 54.1866L58.7594 54.9432ZM58.3341 58.2134C58.3341 56.874 58.4395 55.71 58.7566 54.95L56.9108 54.1799C56.426 55.3419 56.3341 56.864 56.3341 58.2134H58.3341ZM58.3341 83.3333V58.2134H56.3341V83.3333H58.3341Z" fill="white" mask="url(#path-1-inside-1_86_179)"/>
</svg>
