<svg width="100" height="100" viewBox="0 0 100 100" fill="none" xmlns="http://www.w3.org/2000/svg">
<path d="M88.5426 61.7343C88.5426 60.2707 87.7747 58.9144 86.5196 58.1614L71.0394 48.8732C69.1635 47.7477 66.7367 48.2645 65.4822 50.0567L61.2487 56.1045C59.9817 57.9146 57.5114 58.4339 55.7182 57.1432C50.7682 53.5804 46.4207 49.2329 42.8578 44.2829C41.5671 42.4897 42.0865 40.0194 43.8965 38.7524L49.9444 34.5189C51.7365 33.2644 52.2533 30.8376 51.1278 28.9617L41.8397 13.4814C41.0867 12.2264 39.7304 11.4585 38.2668 11.4585H23.9592C17.0557 11.4585 11.3527 17.0911 12.459 23.9054C17.7517 56.5073 43.494 82.2494 76.0957 87.5421C82.9101 88.6484 88.5426 82.9454 88.5426 76.0418V61.7343Z" fill="white"/>
</svg>
